<svg width="44" height="44" viewBox="0 0 44 44" fill="none" xmlns="http://www.w3.org/2000/svg">
<path d="M40.95 1.42622C39.0484 -0.475406 35.9745 -0.475406 34.0729 1.42622L31.4593 4.03118L39.9601 12.532L42.5738 9.9184C44.4754 8.01677 44.4754 4.94292 42.5738 3.04129L40.95 1.42622ZM14.9699 20.5293C14.4402 21.059 14.0321 21.7102 13.7976 22.4309L11.2274 30.1416C10.9756 30.8884 11.1753 31.7133 11.731 32.2777C12.2867 32.8421 13.1116 33.0331 13.8671 32.7813L21.5778 30.2111C22.2898 29.9679 22.941 29.5685 23.4794 29.0388L38.0064 14.5031L29.4969 5.99359L14.9699 20.5293ZM8.33588 5.09922C3.73378 5.09922 0 8.833 0 13.4351V35.6641C0 40.2662 3.73378 44 8.33588 44H30.5649C35.167 44 38.9008 40.2662 38.9008 35.6641V27.3282C38.9008 25.7913 37.6591 24.5496 36.1222 24.5496C34.5852 24.5496 33.3435 25.7913 33.3435 27.3282V35.6641C33.3435 37.201 32.1018 38.4427 30.5649 38.4427H8.33588C6.79895 38.4427 5.55726 37.201 5.55726 35.6641V13.4351C5.55726 11.8982 6.79895 10.6565 8.33588 10.6565H16.6718C18.2087 10.6565 19.4504 9.41477 19.4504 7.87784C19.4504 6.34091 18.2087 5.09922 16.6718 5.09922H8.33588Z" fill="black"/>
</svg>
