<svg width="250" height="251" viewBox="0 0 250 251" fill="none" xmlns="http://www.w3.org/2000/svg">
<path d="M124.731 250.418C193.618 250.418 249.462 194.36 249.462 125.209C249.462 56.058 193.618 0 124.731 0C55.8439 0 0 56.058 0 125.209C0 194.36 55.8439 250.418 124.731 250.418Z" fill="#F2F2F2"/>
<path d="M239.358 44.8043H10.8684C10.3784 44.7938 9.98973 44.3865 10.0002 43.8947C10.0104 43.4177 10.3932 43.0334 10.8684 43.0232H239.358C239.848 43.0337 240.237 43.4409 240.226 43.9328C240.216 44.4098 239.833 44.7941 239.358 44.8043Z" fill="#CACACA"/>
<path d="M153.754 152H90.5903C85.846 152 82 155.861 82 160.623V160.623C82 165.386 85.846 169.246 90.5903 169.246H153.754C158.498 169.246 162.344 165.386 162.344 160.623C162.344 155.861 158.498 152 153.754 152Z" fill="white"/>
<path d="M49.5903 55H194.362C199.106 55 202.952 58.8608 202.952 63.6232C202.952 68.3857 199.106 72.2465 194.362 72.2465H49.5903C44.846 72.2465 41 68.3857 41 63.6232C41 58.8608 44.846 55 49.5903 55Z" fill="white"/>
<path d="M49.5903 188.986H194.362C199.106 188.986 202.952 192.847 202.952 197.609C202.952 202.372 199.106 206.232 194.362 206.232H49.5903C44.846 206.232 41 202.372 41 197.609C41 192.847 44.846 188.986 49.5903 188.986Z" fill="white"/>
<path d="M63.4388 145.866C63.3399 145.869 63.2408 145.871 63.1418 145.874C63.0994 145.984 63.0537 146.094 63.001 146.201L63.4388 145.866V145.866Z" fill="#2F2E41"/>
<path d="M66.8052 133.891C66.8244 134.013 66.8538 134.132 66.8931 134.248C66.8769 134.127 66.8474 134.007 66.8052 133.891Z" fill="#2F2E41"/>
<path d="M147.106 114.271C148.25 100.401 137.976 88.2263 124.159 87.0784C110.342 85.9305 98.2141 96.2437 97.0705 110.114C95.927 123.984 106.201 136.158 120.018 137.306C133.835 138.454 145.963 128.14 147.106 114.271Z" fill="#FF6363"/>
<path d="M128.682 101.692L122.088 108.312L115.494 101.692C114.426 100.621 112.696 100.621 111.628 101.692C110.561 102.764 110.561 104.501 111.628 105.572L118.222 112.192L111.628 118.811C110.562 119.884 110.563 121.621 111.632 122.692C112.699 123.761 114.427 123.761 115.494 122.692L122.088 116.072L128.682 122.692C129.751 123.762 131.481 123.761 132.548 122.688C133.613 121.617 133.613 119.882 132.548 118.811L125.954 112.192L132.548 105.572C133.615 104.501 133.615 102.764 132.548 101.692C131.48 100.621 129.75 100.621 128.682 101.692Z" fill="white"/>
<path d="M22.4609 33.5232C24.7544 33.5232 26.6136 31.6152 26.6136 29.2616C26.6136 26.908 24.7544 25 22.4609 25C20.1674 25 18.3081 26.908 18.3081 29.2616C18.3081 31.6152 20.1674 33.5232 22.4609 33.5232Z" fill="#3F3D56"/>
<path d="M36.8066 33.5232C39.1001 33.5232 40.9593 31.6152 40.9593 29.2616C40.9593 26.908 39.1001 25 36.8066 25C34.5131 25 32.6538 26.908 32.6538 29.2616C32.6538 31.6152 34.5131 33.5232 36.8066 33.5232Z" fill="#3F3D56"/>
<path d="M51.1528 33.5232C53.4463 33.5232 55.3055 31.6152 55.3055 29.2616C55.3055 26.908 53.4463 25 51.1528 25C48.8593 25 47 26.908 47 29.2616C47 31.6152 48.8593 33.5232 51.1528 33.5232Z" fill="#3F3D56"/>
<path d="M67.511 32.6297C67.3834 32.6297 67.2561 32.5801 67.1599 32.4814L64.3579 29.6061C64.1711 29.4145 64.1711 29.1083 64.3579 28.9167L67.1599 26.0416C67.3501 25.8471 67.6613 25.844 67.8543 26.0339C68.0483 26.2243 68.0516 26.5365 67.862 26.7309L65.3959 29.2614L67.862 31.7921C68.0516 31.9866 68.0483 32.2988 67.8543 32.4892C67.7589 32.583 67.6349 32.6297 67.511 32.6297Z" fill="#3F3D56"/>
<path d="M72.2191 32.6298C72.0952 32.6298 71.9712 32.5831 71.8758 32.4893C71.6818 32.2989 71.6784 31.9869 71.8681 31.7922L74.334 29.2615L71.8681 26.7311C71.6784 26.5366 71.6818 26.2244 71.8758 26.034C72.0693 25.8434 72.3805 25.847 72.5702 26.0417L75.372 28.9168C75.5588 29.1084 75.5588 29.4146 75.372 29.6062L72.5702 32.4816C72.474 32.5803 72.3467 32.6298 72.2191 32.6298Z" fill="#3F3D56"/>
<path d="M218.808 25.4934H213.597C213.003 25.4934 212.522 25.9765 212.522 26.573V31.8081C212.522 32.4046 213.003 32.8876 213.597 32.8876H218.808C219.402 32.8876 219.888 32.4046 219.888 31.8081V26.573C219.888 25.9765 219.402 25.4934 218.808 25.4934Z" fill="#3F3D56"/>
<path d="M206.04 25.4934H200.829C200.235 25.4934 199.754 25.9765 199.754 26.573V31.8081C199.754 32.4046 200.235 32.8876 200.829 32.8876H206.04C206.634 32.8876 207.12 32.4046 207.12 31.8081V26.573C207.12 25.9765 206.634 25.4934 206.04 25.4934Z" fill="#3F3D56"/>
<path d="M230.838 25.7397H225.628C225.034 25.7397 224.553 26.2228 224.553 26.8193V32.0544C224.553 32.6509 225.034 33.134 225.628 33.134H230.838C231.433 33.134 231.919 32.6509 231.919 32.0544V26.8193C231.919 26.2228 231.433 25.7397 230.838 25.7397Z" fill="#3F3D56"/>
<path d="M152.307 27.7314H110.659C109.933 27.7314 109.348 28.323 109.348 29.0476C109.348 29.7723 109.933 30.3638 110.659 30.3638H152.307C153.029 30.3638 153.618 29.7723 153.618 29.0476C153.618 28.323 153.029 27.7314 152.307 27.7314Z" fill="#3F3D56"/>
</svg>
