<svg width="631" height="496" viewBox="0 0 631 496" fill="none" xmlns="http://www.w3.org/2000/svg">
<path d="M571.372 493.703H437.578V489.346C437.578 485.563 438.994 481.936 441.515 479.261C444.035 476.586 447.454 475.083 451.019 475.083H557.93C561.495 475.083 564.914 476.586 567.435 479.261C569.955 481.936 571.372 485.563 571.372 489.346V493.703Z" fill="#E6E6E6"/>
<path d="M501.344 475.953L505.412 474.214C462.84 362.083 466.942 220.62 502.929 99.2704C507.204 85.2103 507.512 70.1308 503.816 55.8872C500.12 41.6436 492.58 28.8571 482.125 19.101C461.237 -0.678679 432.44 -5.49718 406.967 6.52462C381.823 18.393 378.358 39.066 378.358 59.6383H382.744C382.744 37.6783 387.167 20.9653 408.75 10.7777C432.624 -0.488893 459.62 4.03016 479.204 22.5745C489.024 31.7376 496.106 43.7471 499.577 57.1252C503.049 70.5034 502.76 84.6667 498.744 97.8726C462.342 220.624 458.481 363.058 501.344 475.953Z" fill="#E6E6E6"/>
<path d="M381.648 128.297C390.127 128.297 397.001 121.003 397.001 112.005C397.001 103.007 390.127 95.7133 381.648 95.7133C373.168 95.7133 366.294 103.007 366.294 112.005C366.294 121.003 373.168 128.297 381.648 128.297Z" fill="#E6E6E6"/>
<path d="M358.002 140.407V109.537H362.526V140.407C363.823 140.964 364.898 141.982 365.565 143.288C366.233 144.593 366.451 146.104 366.184 147.562C365.917 149.02 365.18 150.334 364.1 151.279C363.02 152.223 361.663 152.74 360.264 152.74C358.864 152.74 357.508 152.223 356.428 151.279C355.348 150.334 354.611 149.02 354.344 147.562C354.076 146.104 354.295 144.593 354.963 143.288C355.63 141.982 356.705 140.964 358.002 140.407Z" fill="#E6E6E6"/>
<path d="M336.136 85.8216C336.143 78.7254 338.803 71.9223 343.532 66.9045C348.261 61.8868 354.672 59.0643 361.359 59.0562H403.033C409.722 59.0562 416.138 61.8761 420.868 66.8956C425.599 71.9151 428.256 78.723 428.256 85.8216C428.256 92.9202 425.599 99.7281 420.868 104.748C416.138 109.767 409.722 112.587 403.033 112.587H361.359C354.672 112.579 348.261 109.756 343.532 104.739C338.803 99.7209 336.143 92.9177 336.136 85.8216Z" fill="#6C63FF"/>
<path d="M277.42 251.57C281.604 194.766 302.997 167.702 289.299 150.729C276.177 134.472 239.217 137.83 215.48 153.431C151.457 195.508 128.001 363.211 210.389 445.147C288.679 523.007 437.053 498.07 470.027 434.343C477.721 419.473 483.833 393.407 472.572 377.62C444.616 338.427 342.974 409.416 297.783 365.015C271.002 338.701 275.124 282.744 277.42 251.57Z" fill="#3F3D56"/>
<path d="M326.36 223.349C324.805 224.108 323.59 225.481 322.975 227.176C322.359 228.871 322.391 230.754 323.064 232.424C323.205 232.761 323.373 233.085 323.565 233.393L309.823 252.863L316.681 263.738L332.788 234.907C333.929 233.963 334.743 232.644 335.104 231.157C335.465 229.67 335.351 228.098 334.781 226.686C334.45 225.886 333.973 225.163 333.378 224.559C332.784 223.954 332.083 223.48 331.315 223.163C330.548 222.846 329.729 222.693 328.906 222.712C328.082 222.731 327.27 222.922 326.517 223.273C326.464 223.298 326.412 223.323 326.36 223.349Z" fill="#FFB6B6"/>
<path d="M326.349 256.919C327.248 257.765 324.754 258.81 322.115 257.162C321.36 256.685 321.037 256.487 320.952 256.613C320.74 256.928 321.979 259.251 321.648 264.41C321.445 267.489 316.625 273.278 311.152 278.924C303.754 286.559 295.15 293.924 295.15 293.924L292.129 291.358L260.455 264.41L255.11 256.559C255.599 253.458 256.334 250.407 257.307 247.438C258.648 243.328 260.24 239.316 262.076 235.427C263.06 233.311 264.07 231.295 265.037 229.44L282.007 249.284L296.227 265.904C296.227 265.904 300.368 258.828 303.575 256.901C303.984 256.624 304.45 256.454 304.933 256.406C308.174 256.244 308.369 254.371 304.611 250.292C300.852 246.214 305.595 250.022 308.938 248.924C312.281 247.825 308.938 248.924 309.642 246.178C310.346 243.431 319.722 237.921 319.722 237.921L320.112 238.29L327.197 244.926L329.225 246.826C329.225 246.826 327.011 253.272 326.4 254.632C325.789 255.991 325.458 256.064 326.349 256.919Z" fill="#6C63FF"/>
<path d="M513.116 381.993L513.461 372.061L477.526 365.922L477.016 380.579L513.116 381.993Z" fill="#FFB6B6"/>
<path d="M506.593 384.983L506.252 369.082L512.658 369.332L523 354.632C523.511 353.906 524.227 353.372 525.044 353.109C525.861 352.845 526.736 352.865 527.541 353.167C528.346 353.468 529.04 354.035 529.52 354.784C530 355.533 530.242 356.425 530.211 357.331L529.554 376.22L523.104 379.228L529.396 380.747L529.149 387.869L506.593 384.983Z" fill="#2F2E41"/>
<path d="M310.87 385.859L424.689 388.922C424.689 388.922 473.84 391.934 485.372 383.974L497.533 382.344L498.192 363.39C498.192 363.39 490.756 363.448 486.48 361.334C482.205 359.22 485.176 356.633 481.1 359.177C477.024 361.72 477.454 362.026 474.302 360.857C471.151 359.688 326.623 336.312 326.623 336.312L310.87 385.859Z" fill="#2F2E41"/>
<path d="M460.854 377.634L467.472 370.603L445.064 340.167L435.295 350.545L460.854 377.634Z" fill="#FFB6B6"/>
<path d="M454.155 371.517L464.097 359.614L468.633 364.421L485.636 361.109C486.476 360.945 487.343 361.07 488.111 361.467C488.879 361.863 489.507 362.509 489.905 363.311C490.302 364.113 490.447 365.029 490.319 365.925C490.191 366.821 489.796 367.65 489.193 368.291L476.604 381.664L469.948 379.214L473.587 384.869L468.841 389.912L454.155 371.517Z" fill="#2F2E41"/>
<path d="M265.966 319.714L267.097 347.625C268.429 380.482 302.53 400.368 328.972 383.213C329.459 382.897 329.948 382.569 330.439 382.23C330.439 382.23 340.463 379.374 340.159 374.85C339.854 370.326 342.303 368.124 344.47 369.358C346.638 370.592 375.013 327.86 375.013 327.86C375.013 327.86 433.967 359.066 446.973 366.411C446.973 366.411 459.201 346.124 458.314 346.336C457.428 346.549 385.381 293.04 385.381 293.04C385.381 293.04 373.643 280.435 359.084 288.757C358.78 289.98 359.04 290.022 359.04 290.022L310.944 331.609L304.148 317.913L265.966 319.714Z" fill="#2F2E41"/>
<path d="M311.314 284.821C311.222 286.11 311.049 287.392 310.796 288.657C310.45 290.487 309.891 292.266 309.133 293.951C309.133 293.951 309.133 295.832 305.739 302.135C302.345 308.437 306.588 305.736 309.133 310.418C311.678 315.091 309.133 312.939 306.307 315.946C305.494 316.822 304.916 317.912 304.634 319.104C304.352 320.296 304.376 321.547 304.704 322.726C304.704 322.726 268.253 322.753 261.465 320.052C254.677 317.351 253.133 302.135 259.216 300.631C265.291 299.128 257.375 297.633 253.803 294.167C250.231 290.7 257.375 285.028 257.375 285.028C257.375 285.028 254.431 279.635 254.677 261.529C254.712 259.863 254.856 258.203 255.11 256.559C255.599 253.458 256.334 250.407 257.307 247.438C258.647 243.328 260.24 239.316 262.076 235.427C263.06 233.311 264.07 231.295 265.037 229.44C265.19 229.152 265.334 228.873 265.487 228.594C267.328 225.136 269.008 222.309 270.119 220.499C270.976 219.095 271.494 218.302 271.494 218.302L277.671 206.904L298.289 217.159L297.118 233.933L300.673 246.583L302.311 252.408L303.575 256.901L305.527 263.861C305.527 263.861 304.992 263.888 305.629 264.815C308.559 268.95 310.459 273.802 311.152 278.924C311.397 280.878 311.451 282.855 311.314 284.821Z" fill="#6C63FF"/>
<path d="M370.857 286.629L370.47 286.496L321.121 269.633L339.306 206.327C339.668 205.067 340.295 203.91 341.14 202.944C341.984 201.978 343.025 201.228 344.182 200.75C345.34 200.273 346.585 200.081 347.822 200.188C349.06 200.295 350.259 200.699 351.328 201.369L382.864 221.14C385.361 222.704 387.26 225.148 388.23 228.047C389.2 230.945 389.18 234.113 388.172 236.997L370.857 286.629Z" fill="#2F2E41"/>
<path d="M371.057 290.653L321.311 273.655L339.496 210.349C339.858 209.088 340.485 207.931 341.33 206.965C342.175 205.999 343.215 205.249 344.373 204.772C345.53 204.294 346.775 204.102 348.013 204.209C349.251 204.317 350.449 204.721 351.519 205.391L384.56 222.896C389.524 226.007 389.408 234.06 387.103 240.667L371.057 290.653Z" fill="#6C63FF"/>
<path d="M366.077 295.235C364.931 295.921 363.664 296.346 362.355 296.485C361.046 296.623 359.725 296.471 358.474 296.038L326.678 285.172C324.238 284.326 322.207 282.502 321.018 280.088C319.829 277.675 319.576 274.864 320.314 272.256L336.256 216.76C336.574 215.651 337.098 214.621 337.797 213.73C338.495 212.839 339.355 212.105 340.324 211.571C341.294 211.037 342.354 210.714 343.443 210.621C344.531 210.527 345.627 210.665 346.664 211.027L379.615 222.508C381.185 223.055 382.636 223.93 383.882 225.082C385.128 226.234 386.144 227.639 386.869 229.214C387.595 230.79 388.016 232.503 388.106 234.254C388.197 236.005 387.957 237.758 387.399 239.408L370.354 289.831C369.589 292.121 368.07 294.04 366.077 295.235Z" fill="#3F3D56"/>
<path d="M297.124 207.099C309.701 207.099 319.898 196.279 319.898 182.932C319.898 169.585 309.701 158.766 297.124 158.766C284.546 158.766 274.349 169.585 274.349 182.932C274.349 196.279 284.546 207.099 297.124 207.099Z" fill="#FFB6B6"/>
<path d="M220.112 207.463C222.202 211.761 225.629 215.161 229.811 217.084C231.48 217.891 233.235 218.48 235.038 218.839C235.548 216.695 236.363 214.646 237.457 212.764C237.092 214.886 237.092 217.06 237.457 219.182C240.203 219.42 242.966 219.056 245.574 218.112C248.136 217.188 250.459 215.643 252.359 213.6C254.26 211.557 255.686 209.071 256.524 206.342C258.338 199.936 256.384 193.094 256.23 186.408C256.071 179.721 259.064 171.723 265.319 170.895C270.084 170.264 269.495 170.754 272.918 174.325C268.129 179.97 279.803 204.97 286.067 203.865C289.609 203.241 292.215 200.257 292.915 200.361C296.502 209.681 285.713 222.901 294.27 227.24L293.635 226.349C289.156 218.497 302.41 205.235 297.931 197.383C296.682 195.186 295.383 192.611 296.156 190.181C296.889 187.871 300.603 187.14 301.386 189.243C300.113 184.423 303.668 178.766 308.39 178.274C312.586 177.835 312.344 179.104 316.344 180.262C316.855 178.433 317.591 176.684 318.534 175.061C318.215 176.913 318.176 178.808 318.417 180.673C319.86 180.856 321.319 180.528 322.569 179.741C326.263 177.391 326.372 171.326 323.835 167.634C321.293 163.942 317.035 162.119 312.927 160.74C312.889 151.521 289.513 147.108 285.213 155.679C284.771 148.739 277.274 144.064 270.816 145.243C264.358 146.422 259.264 151.917 256.157 158.041C253.052 164.161 251.51 171.014 249.237 177.532C246.963 184.051 243.713 190.551 238.269 194.418C232.826 198.281 224.736 198.632 220.191 193.625C219.155 195.763 218.607 198.13 218.593 200.534C218.58 202.938 219.1 205.312 220.112 207.463Z" fill="#2F2E41"/>
<path d="M243.48 317.974C243.951 317.574 244.463 317.231 245.005 316.95C253.722 312.346 280.83 300.396 302.026 300.887C342.809 301.83 394.712 349.591 382.632 381.665C373.441 406.07 327.746 419.955 294.389 408.849C247.66 393.292 229.216 330.043 243.48 317.974Z" fill="#3F3D56"/>
<path d="M74.1709 493.795C60.8445 491.127 49.0482 427.419 75.2675 396.043C84.2507 385.293 95.4559 380.614 110.361 376.26C196.15 351.198 261.582 375.083 270.375 380.915C279.149 386.733 294.529 474.403 274.861 486.812C263.795 493.794 241.862 497.286 230.995 489.14C215.004 477.153 241.844 446.063 229.898 425.136C216.341 401.387 144.955 393.388 109.165 416.99C70.9808 442.17 149.742 508.923 74.1709 493.795Z" fill="#F2F2F2"/>
<path d="M163.269 385.477H112.358C99.7898 372.696 90.8037 360.379 97.998 350.154C97.998 347.215 99.0983 344.396 101.057 342.318C103.015 340.24 105.672 339.072 108.441 339.072H167.186C169.955 339.072 172.612 340.24 174.57 342.318C176.529 344.396 177.629 347.215 177.629 350.154C180.368 361.804 175.475 373.581 163.269 385.477Z" fill="#CCCCCC"/>
<path d="M154.126 325.121C153.643 325.145 153.165 325.01 152.756 324.736C152.348 324.461 152.028 324.06 151.842 323.587C151.655 323.113 151.61 322.591 151.713 322.089C151.816 321.588 152.062 321.132 152.417 320.784L152.578 320.102C152.557 320.047 152.536 319.993 152.514 319.938C152.028 318.719 151.212 317.679 150.17 316.949C149.128 316.22 147.907 315.833 146.658 315.838C145.41 315.843 144.191 316.239 143.155 316.977C142.118 317.715 141.31 318.761 140.832 319.984C138.921 324.868 136.488 329.759 135.889 334.923C135.625 337.205 135.737 339.518 136.218 341.76C131.73 331.372 129.4 320.082 129.385 308.654C129.384 305.786 129.534 302.921 129.835 300.071C130.083 297.735 130.428 295.415 130.868 293.112C133.274 280.616 138.438 268.904 145.938 258.938C149.567 256.836 152.503 253.604 154.348 249.678C155.017 248.267 155.489 246.76 155.751 245.205C155.342 245.262 154.207 238.645 154.516 238.239C153.945 237.32 152.924 236.863 152.301 235.967C149.202 231.508 144.931 232.286 142.702 238.346C137.94 240.896 137.894 245.126 140.816 249.194C142.675 251.782 142.93 255.284 144.562 258.054C144.394 258.282 144.219 258.503 144.051 258.731C140.984 262.917 138.31 267.411 136.069 272.15C136.614 266.841 135.963 261.471 134.171 256.48C132.354 251.83 128.949 247.913 125.95 243.892C122.348 239.063 114.962 241.17 114.327 247.292C114.321 247.352 114.315 247.411 114.309 247.47C114.754 247.737 115.19 248.02 115.617 248.319C116.153 248.699 116.568 249.242 116.808 249.877C117.049 250.511 117.103 251.208 116.963 251.876C116.824 252.544 116.497 253.151 116.027 253.619C115.557 254.086 114.964 254.392 114.327 254.497L114.262 254.507C114.421 256.211 114.701 257.899 115.101 259.557C111.254 275.344 119.56 281.094 131.419 281.353C131.681 281.495 131.936 281.638 132.197 281.773C129.946 288.545 128.533 295.598 127.995 302.756C127.691 306.98 127.709 311.222 128.049 315.442L128.029 315.292C127.17 310.6 124.811 306.366 121.35 303.305C116.211 298.825 108.949 297.175 103.404 293.574C102.815 293.172 102.13 292.958 101.429 292.956C100.729 292.954 100.043 293.165 99.4519 293.563C98.8608 293.962 98.3894 294.531 98.0932 295.205C97.7971 295.878 97.6886 296.627 97.7806 297.364C97.7881 297.416 97.7956 297.469 97.8033 297.521C98.6299 297.879 99.4347 298.29 100.213 298.753C100.658 299.02 101.094 299.303 101.521 299.603C102.057 299.982 102.472 300.525 102.712 301.16C102.953 301.795 103.007 302.492 102.867 303.159C102.728 303.827 102.401 304.435 101.931 304.902C101.461 305.37 100.868 305.676 100.231 305.78L100.166 305.791C100.119 305.798 100.079 305.805 100.032 305.812C101.444 309.39 103.426 312.684 105.892 315.549C108.297 329.33 118.629 330.638 129.68 326.625H129.687C130.9 332.216 132.656 337.658 134.929 342.864H153.657C153.724 342.644 153.784 342.416 153.845 342.195C152.111 342.31 150.371 342.2 148.663 341.867C150.052 340.058 151.442 338.235 152.831 336.425C152.862 336.392 152.891 336.356 152.918 336.319C153.623 335.393 154.335 334.474 155.04 333.548L155.04 333.547C155.077 330.708 154.771 327.877 154.127 325.122L154.126 325.121Z" fill="#CCCCCC"/>
<path d="M218.002 382.583C218.312 383.542 218.902 384.373 219.685 384.955C220.468 385.537 221.405 385.841 222.361 385.823L241.038 385.313C242.001 385.293 242.932 384.943 243.692 384.315C244.452 383.687 245 382.815 245.254 381.829L247.897 351.839C248.835 352.29 249.856 352.513 250.885 352.491C252.691 352.443 254.405 351.635 255.65 350.246C256.895 348.857 257.569 347 257.523 345.084C257.478 343.168 256.717 341.349 255.408 340.028C254.099 338.707 252.349 337.992 250.543 338.04C250.132 338.038 249.722 338.084 249.319 338.175C248.882 337.673 248.35 337.273 247.758 337.002C247.166 336.731 246.528 336.595 245.883 336.602L217.154 337.389C216.915 337.398 216.678 337.429 216.445 337.482C215.815 337.607 215.217 337.873 214.692 338.263C214.168 338.654 213.728 339.159 213.402 339.745C213.076 340.33 212.873 340.983 212.805 341.66C212.737 342.336 212.807 343.02 213.009 343.665L218.002 382.583ZM248.439 349.803L250.32 342.656C250.534 341.831 250.539 340.96 250.335 340.132C250.426 340.132 250.506 340.086 250.598 340.086C251.887 340.058 253.134 340.573 254.066 341.519C254.997 342.466 255.538 343.765 255.568 345.133C255.598 346.501 255.116 347.826 254.227 348.818C253.338 349.809 252.115 350.386 250.826 350.422C249.992 350.45 249.167 350.236 248.439 349.803Z" fill="#CCCCCC"/>
<path d="M216.445 337.482C217.057 341.196 223.939 343.807 232.213 343.353C239.822 342.981 246.044 340.146 247.183 336.786C246.762 336.653 246.323 336.591 245.883 336.602L217.154 337.389C216.915 337.398 216.678 337.429 216.445 337.482Z" fill="white"/>
<path d="M1.00024 495.201L630 495.475C630.265 495.475 630.519 495.363 630.707 495.164C630.895 494.965 631 494.695 631 494.413C631 494.132 630.895 493.862 630.707 493.663C630.519 493.464 630.265 493.352 630 493.352L1.00024 493.078C0.734962 493.078 0.480548 493.19 0.292964 493.389C0.105381 493.588 0 493.858 0 494.139C0 494.421 0.105381 494.691 0.292964 494.89C0.480548 495.089 0.734962 495.201 1.00024 495.201Z" fill="#CACACA"/>
<path d="M353.786 257.989C352.076 258.056 350.457 258.828 349.275 260.141C348.092 261.454 347.44 263.205 347.455 265.021C347.464 265.391 347.501 265.758 347.567 266.121L327.827 278.488L330.216 291.325L355.532 271.281C356.928 270.875 358.158 269.99 359.029 268.764C359.901 267.539 360.366 266.041 360.352 264.506C360.335 263.632 360.157 262.77 359.827 261.969C359.497 261.169 359.022 260.445 358.428 259.839C357.834 259.234 357.134 258.758 356.367 258.44C355.6 258.121 354.782 257.966 353.959 257.983C353.901 257.985 353.844 257.987 353.786 257.989Z" fill="#FFB6B6"/>
<path d="M337.616 287.471C337.087 286.721 336.861 286.406 336.74 286.493C336.431 286.691 336.729 289.343 334.555 293.965C331.494 300.459 299.403 310.405 299.403 310.405L295.452 302.73L278.073 268.998L272.083 241.962C271.873 241.019 271.771 240.053 271.78 239.085C277.12 235.096 282.792 231.632 288.725 228.734C291.095 230.161 292.903 232.446 293.816 235.171L305.779 270.764L310.553 284.976C310.553 284.976 318.974 278.586 322.028 279.759C325.078 280.939 325.945 279.284 323.951 273.987C321.958 268.69 324.95 274.143 328.432 274.489C331.921 274.841 328.432 274.489 330.08 272.241C331.728 269.993 342.382 268.729 342.382 268.729L342.609 269.23L346.738 278.243L347.92 280.832C347.92 280.832 343.542 285.872 342.486 286.876C341.425 287.888 341.097 287.818 341.617 288.971C342.13 290.118 339.45 290.066 337.616 287.471Z" fill="#6C63FF"/>
</svg>
