<svg width="34" height="25" viewBox="0 0 34 25" fill="none" xmlns="http://www.w3.org/2000/svg">
<path d="M7.88813 4.52973C10.2069 2.84518 13.18 1.56247 16.7499 1.56247C20.9792 1.56247 24.3658 3.36128 26.8312 5.49798C29.2808 7.6171 30.9192 10.1122 31.6939 11.8993C31.8666 12.285 31.8666 12.7147 31.6939 13.1004C30.9925 14.6776 29.5844 16.8992 27.5116 18.8816L33.0181 22.905C33.5625 23.3054 33.662 24.0427 33.2328 24.5505C32.8035 25.0583 32.0132 25.1511 31.4688 24.7507L0.481343 2.09421C-0.0647019 1.6948 -0.160438 0.958477 0.267573 0.44901C0.695637 -0.0603597 1.48497 -0.149665 2.03144 0.249598L7.88813 4.52973ZM11.6778 7.29972L16.4044 10.7567C16.6242 10.3417 16.7499 9.87293 16.7499 9.33095C16.7499 8.81337 16.5457 8.28604 16.3102 7.83194C16.4567 7.81729 16.6033 7.76846 16.7499 7.76846C19.524 7.76846 21.7748 9.86805 21.7748 12.4559C21.7748 13.1688 21.623 13.8036 21.309 14.3797L23.3765 15.8543C23.9575 14.8582 24.2873 13.7157 24.2873 12.4559C24.2873 8.61806 20.9111 5.42474 16.7499 5.42474C14.7974 5.42474 13.0125 6.16204 11.6778 7.29972ZM16.7499 23.4372C12.5205 23.4372 9.1339 21.6404 6.66853 19.5017C4.21991 17.3387 2.58261 14.8436 1.80374 13.1004C1.63206 12.7147 1.63206 12.285 1.80374 11.8993C2.3031 10.7811 3.15577 9.33583 4.3492 7.88565L9.2857 11.5135C9.23859 11.8358 9.21242 12.1629 9.21242 12.4559C9.21242 16.3817 12.5886 19.531 16.7499 19.531C17.7287 19.531 18.6656 19.3553 19.524 19.0379L23.3556 21.8503C21.4555 22.8074 19.2519 23.4372 16.7499 23.4372Z" fill="#757186"/>
</svg>
