<svg width="30" height="22" viewBox="0 0 30 22" fill="none" xmlns="http://www.w3.org/2000/svg">
<path d="M14.5631 6.30536C14.709 6.29062 14.8548 6.28571 15.0007 6.28571C17.7612 6.28571 20.0009 8.35312 20.0009 11C20.0009 13.6027 17.7612 15.7143 15.0007 15.7143C12.1932 15.7143 10.0004 13.6027 10.0004 11C10.0004 10.8625 10.0056 10.725 10.0213 10.5875C10.5057 10.8085 11.0682 11 11.6672 11C13.5058 11 15.0007 9.59062 15.0007 7.85714C15.0007 7.29241 14.7975 6.76205 14.5631 6.30536ZM25.0323 3.95804C27.4699 6.08929 29.1002 8.59866 29.8711 10.396C30.043 10.7839 30.043 11.2161 29.8711 11.604C29.1002 13.3571 27.4699 15.8665 25.0323 18.042C22.5791 20.1929 19.2092 22 15.0007 22C10.7921 22 7.4222 20.1929 4.97001 18.042C2.53241 15.8665 0.903171 13.3571 0.128189 11.604C-0.0427297 11.2161 -0.0427297 10.7839 0.128189 10.396C0.903171 8.59866 2.53241 6.08929 4.97001 3.95804C7.4222 1.80911 10.7921 0 15.0007 0C19.2092 0 22.5791 1.80911 25.0323 3.95804ZM15.0007 3.92857C10.8599 3.92857 7.50033 7.09598 7.50033 11C7.50033 14.904 10.8599 18.0714 15.0007 18.0714C19.1415 18.0714 22.501 14.904 22.501 11C22.501 7.09598 19.1415 3.92857 15.0007 3.92857Z" fill="#757186"/>
</svg>
